<svg data-v-0dd9719b="" version="1.0" xmlns="http://www.w3.org/2000/svg" xmlns:xlink="http://www.w3.org/1999/xlink" width="100%" height="100%" viewBox="0 0 340.000000 250.000000" preserveAspectRatio="xMidYMid meet" color-interpolation-filters="sRGB" style="margin: auto;"> <rect data-v-0dd9719b="" x="0" y="0" width="100%" height="100%" fill="#ffffff" fill-opacity="1" class="background"></rect> <rect data-v-0dd9719b="" x="0" y="0" width="100%" height="100%" fill="url(#watermark)" fill-opacity="1" class="watermarklayer"></rect> <g data-v-0dd9719b="" fill="#333" class="icon-text-wrapper icon-svg-group iconsvg" transform="translate(53.11000061035156,95.6529712677002)"><g class="iconsvg-imagesvg" transform="translate(0,0)"><g><rect fill="#333" fill-opacity="0" stroke-width="2" x="0" y="0" width="60" height="58.69405722670579" class="image-rect"></rect> <svg x="0" y="0" width="60" height="58.69405722670579" filtersec="colorsb3932281160" class="image-svg-svg primary" style="overflow: visible;"><svg xmlns="http://www.w3.org/2000/svg" viewBox="0 0 102 99.77999877929688"><title>资源 2</title><path fill="#291d6c" d="M0 31.04h22.17v68.74H0zM79.83 0H102v68.74H79.83z"></path><path fill="#74c7fd" d="M102 77.61v22.17H28.83V77.61zM73.17 0v22.17H0V0z"></path><path fill="#d92d62" d="M31.04 31.04h39.91v37.7H31.04z"></path></svg></svg> <!----></g></g> <g transform="translate(67,1.6707801818847656)"><g data-gra="path-name" fill-rule="" class="tp-name iconsvg-namesvg" transform="translate(0,0)"><g transform="scale(1)"><g><path d="M40.87-9.92L40.87-15.58 37.95-15.58C37.99-18.5 37.99-21.51 38.12-24.6L19.66-24.6C20.13-25.29 20.48-26.02 20.95-26.74L39.49-26.74 39.49-32.67 23.83-32.67C24.13-33.36 24.34-34.09 24.64-34.77L17.73-35.12C16.44-31.6 13.99-27.35 11.59-24.6L14.85-22.37 14.25-15.58 11.89-15.58 11.89-11.2 6.44-12.96C5.41-8.37 3.65-2.06 1.93 2.66L8.33 4.68C9.49 1.12 11.2-5.71 12.23-9.92L13.74-9.92 12.92-0.69 30.99-0.69C30.87 0.56 30.39 0.73 29.06 0.86L25.41 1.2 27.13 5.11 31.98 4.77C36.32 4.42 37.26 4.04 37.61-0.69L39.62-0.69 39.62-6.18 37.73-6.18 37.82-9.92ZM13.39-30.44C11.68-31.81 8.41-33.96 6.4-34.94L2.7-29.92C4.51-28.89 7.94-26.27 9.79-24.9ZM12.75-20.05C11.08-21.38 7.9-23.74 5.71-24.98L1.8-20.05C3.65-18.76 6.74-16.27 8.84-14.42ZM20.95-19.45L24.51-19.45 22.75-17.77C23.57-17.21 24.6-16.4 25.5-15.58L20.56-15.58ZM31.6-15.58L28.08-15.58 29.79-17.3C29.28-17.77 28.12-18.63 27.05-19.45L31.72-19.45ZM20.01-9.92L23.74-9.92 22.15-8.41C22.88-7.86 23.95-7 24.86-6.18L19.66-6.18ZM31.25-6.18L27.43-6.18 29.15-7.9C28.68-8.37 27.65-9.19 26.62-9.92L31.38-9.92ZM83.07-26.44L83.07-32.8 67.36-32.8 67.36-34.86 60.06-35.03 60.06-32.8 44.35-32.8 44.35-26.44 60.06-26.44 60.06-24.21 46.15-24.21 46.15 4.85 52.8 4.85 52.8-18.12 55.12-18.12C55.59-17.13 56.11-15.67 56.49-14.51L54.01-14.51 54.01-9.83 60.27-9.83 60.27-7.86 53.79-7.86 53.79-2.83 60.27-2.83 60.27 3.91 67.1 3.91 67.1-2.83 73.62-2.83 73.62-7.86 67.1-7.86 67.1-9.83 73.32-9.83 73.32-14.51 70.53-14.51 72.29-18.12 74.53-18.12 74.53-3.18C74.53-1.93 73.88-1.42 73.07-1.29L70.83-1.07 72.68 5.07 75.38 4.77C79.81 4.29 81.27 3.61 81.27-1.16L81.27-24.21 67.36-24.21 67.36-26.44ZM63.02-14.51C62.55-15.58 61.95-16.96 61.39-18.12L65.85-18.12C65.38-16.87 64.95-15.58 64.48-14.51ZM126.08-0.69C120.37-5.71 117.11-11.16 116.12-17.73L116.25-19.1C117.93-18.03 119.73-17 121.75-16.01L125.57-22.84C118.4-25.67 113.42-29.32 109.81-34.99L102.9-34.99C99.68-30.05 94.79-26.36 86.93-22.88L90.71-16.01C92.13-16.74 93.41-17.47 94.62-18.2 93.93-9.87 91.83-6.57 86.03 0.52L92.51 4.81C96.12 0.21 98.52-4.08 100.03-9.02 100.93-7.98 101.83-6.91 102.56-6.01L107.32-11.42C106.08-12.92 103.42-15.54 101.7-17.13 101.83-18.33 101.87-19.49 102-20.82L98.57-20.82C101.7-23.05 104.1-25.37 106.38-27.95 108.65-25.2 110.97-22.97 113.59-20.95L109.38-20.95C109.26-11.55 108.1-7.68 100.07 0.26L106.08 5.28C109.51 1.67 111.83-1.59 113.51-5.54 115.27-1.42 117.76 2.06 120.55 4.98ZM168.58-0.69C162.87-5.71 159.61-11.16 158.62-17.73L158.75-19.1C160.43-18.03 162.23-17 164.25-16.01L168.07-22.84C160.9-25.67 155.92-29.32 152.31-34.99L145.4-34.99C142.18-30.05 137.29-26.36 129.43-22.88L133.21-16.01C134.63-16.74 135.91-17.47 137.12-18.2 136.43-9.87 134.33-6.57 128.53 0.52L135.01 4.81C138.62 0.21 141.02-4.08 142.53-9.02 143.43-7.98 144.33-6.91 145.06-6.01L149.82-11.42C148.58-12.92 145.92-15.54 144.2-17.13 144.33-18.33 144.37-19.49 144.5-20.82L141.07-20.82C144.2-23.05 146.6-25.37 148.88-27.95 151.15-25.2 153.47-22.97 156.09-20.95L151.88-20.95C151.76-11.55 150.6-7.68 142.57 0.26L148.58 5.28C152.01 1.67 154.33-1.59 156.01-5.54 157.77-1.42 160.26 2.06 163.05 4.98Z" transform="translate(-1.7999999523162842, 35.119998931884766)"></path></g> <!----> <!----> <!----> <!----> <!----> <!----> <!----></g></g> <g data-gra="path-slogan" fill-rule="" class="tp-slogan iconsvg-slogansvg" fill="#333" transform="translate(5,47.39999771118164)"><rect x="0" height="1" y="3.9750003814697266" width="8.875"></rect> <rect height="1" y="3.9750003814697266" width="8.875" x="147.90499877929688"></rect> <g transform="translate(11.875,0)"><g transform="scale(1)"><path d="M2.06-5.06L6.56-5.06L6.56-8.58L7.73-8.58L7.73 0L6.56 0L6.56-3.98L2.06-3.98L2.06 0L0.89 0L0.89-8.58L2.06-8.58L2.06-5.06ZM15.19 0L14.34-2.48L10.88-2.48L9.98 0L8.81 0L12.05-8.58L13.36-8.58L16.45 0L15.19 0ZM12.61-7.31L11.25-3.52L13.92-3.52L12.66-7.31L12.61-7.31ZM17.67-8.58L18.84-8.58L18.84 0L17.67 0L17.67-8.58ZM22.22-8.58L26.53-1.64L26.53-8.58L27.66-8.58L27.66 0L26.34 0L21.98-6.94L21.94-6.94L21.94 0L20.81 0L20.81-8.58L22.22-8.58ZM35.11 0L34.27-2.48L30.80-2.48L29.91 0L28.73 0L31.97-8.58L33.28-8.58L36.38 0L35.11 0ZM32.53-7.31L31.17-3.52L33.84-3.52L32.58-7.31L32.53-7.31ZM38.81-8.58L43.13-1.64L43.13-8.58L44.25-8.58L44.25 0L42.94 0L38.58-6.94L38.53-6.94L38.53 0L37.41 0L37.41-8.58L38.81-8.58ZM50.20-1.03L55.50-1.03L55.50 0L48.75 0L48.75-0.94L54-7.59L49.13-7.59L49.13-8.58L55.50-8.58L55.50-7.59L50.20-1.03ZM57.80-5.06L62.30-5.06L62.30-8.58L63.47-8.58L63.47 0L62.30 0L62.30-3.98L57.80-3.98L57.80 0L56.63 0L56.63-8.58L57.80-8.58L57.80-5.06ZM72.05-4.27L72.05-4.27Q71.86-7.64 69.05-7.83L69.05-7.83Q66.19-7.69 66.05-4.27L66.05-4.27Q66.19-0.94 69.05-0.80L69.05-0.80Q71.86-0.98 72.05-4.27ZM73.22-4.27L73.22-4.27Q72.94 0 69.05 0.14L69.05 0.14Q65.11 0 64.83-4.27L64.83-4.27Q65.06-8.72 69.05-8.81L69.05-8.81Q72.94-8.67 73.22-4.27ZM75.98-8.58L80.30-1.64L80.30-8.58L81.42-8.58L81.42 0L80.11 0L75.75-6.94L75.70-6.94L75.70 0L74.58 0L74.58-8.58L75.98-8.58ZM89.63-3.61L87-3.61L87-4.59L90.75-4.59L90.75 0L90 0L89.72-1.08Q88.73 0.09 86.91 0.14L86.91 0.14Q85.17 0.14 84.23-0.75L84.23-0.75Q82.83-2.06 82.88-4.36L82.88-4.36Q83.20-8.63 86.95-8.81L86.95-8.81Q90.14-8.63 90.61-6L90.61-6L89.48-6Q89.02-7.78 86.91-7.83L86.91-7.83Q84.23-7.64 84.09-4.31L84.09-4.31Q84.09-0.75 86.95-0.75L86.95-0.75Q87.98-0.75 88.73-1.31L88.73-1.31Q89.67-2.06 89.63-3.61L89.63-3.61ZM93.38-1.03L98.67-1.03L98.67 0L91.92 0L91.92-0.94L97.17-7.59L92.30-7.59L92.30-8.58L98.67-8.58L98.67-7.59L93.38-1.03ZM100.97-5.06L105.47-5.06L105.47-8.58L106.64-8.58L106.64 0L105.47 0L105.47-3.98L100.97-3.98L100.97 0L99.80 0L99.80-8.58L100.97-8.58L100.97-5.06ZM115.22-4.27L115.22-4.27Q115.03-7.64 112.22-7.83L112.22-7.83Q109.36-7.69 109.22-4.27L109.22-4.27Q109.36-0.94 112.22-0.80L112.22-0.80Q115.03-0.98 115.22-4.27ZM116.39-4.27L116.39-4.27Q116.11 0 112.22 0.14L112.22 0.14Q108.28 0 108-4.27L108-4.27Q108.23-8.72 112.22-8.81L112.22-8.81Q116.11-8.67 116.39-4.27ZM119.16-8.58L123.47-1.64L123.47-8.58L124.59-8.58L124.59 0L123.28 0L118.92-6.94L118.88-6.94L118.88 0L117.75 0L117.75-8.58L119.16-8.58ZM132.80-3.61L130.17-3.61L130.17-4.59L133.92-4.59L133.92 0L133.17 0L132.89-1.08Q131.91 0.09 130.08 0.14L130.08 0.14Q128.34 0.14 127.41-0.75L127.41-0.75Q126-2.06 126.05-4.36L126.05-4.36Q126.38-8.63 130.13-8.81L130.13-8.81Q133.31-8.63 133.78-6L133.78-6L132.66-6Q132.19-7.78 130.08-7.83L130.08-7.83Q127.41-7.64 127.27-4.31L127.27-4.31Q127.27-0.75 130.13-0.75L130.13-0.75Q131.16-0.75 131.91-1.31L131.91-1.31Q132.84-2.06 132.80-3.61L132.80-3.61Z" transform="translate(-0.890625, 8.8125)"></path></g></g></g></g></g><defs v-gra="od"></defs></svg>